<svg xmlns="http://www.w3.org/2000/svg" version="1.1" xmlns:xlink="http://www.w3.org/1999/xlink" xmlns:svgjs="http://svgjs.dev/svgjs" width="128" height="128" viewBox="0 0 128 128"><g transform="matrix(0.3828996282527881,0,0,0.3828996282527881,47.759669495514935,12.234667799730587)"><svg viewBox="0 0 46 97" data-background-color="#fafafa" preserveAspectRatio="xMidYMid meet" height="269" width="128" xmlns="http://www.w3.org/2000/svg" xmlns:xlink="http://www.w3.org/1999/xlink"><g id="tight-bounds" transform="matrix(1,0,0,1,0.5760831725627185,0.2498759555935237)"><svg viewBox="0 0 45.03230144966697 95.481" height="95.481" width="45.03230144966697"><g><svg viewBox="0 0 45.03230144966697 95.481" height="95.481" width="45.03230144966697"><g><svg viewBox="0 0 45.03230144966697 95.481" height="95.481" width="45.03230144966697"><g id="textblocktransform"><svg viewBox="0 0 45.03230144966697 95.481" height="95.481" width="45.03230144966697" id="textblock"><g><svg viewBox="0 0 45.03230144966697 95.481" height="95.481" width="45.03230144966697"><g><svg viewBox="0 0 45.03230144966697 95.481" height="95.481" width="45.03230144966697"><g><svg xmlns="http://www.w3.org/2000/svg" xmlns:xlink="http://www.w3.org/1999/xlink" version="1.1" x="0" y="0" viewBox="26.408371279713098 0 47.16362872028691 100.00000641484019" enable-background="new 0 0 100 100" xml:space="preserve" id="icon-0" width="45.03230144966697" height="95.481" class="icon-icon-0" data-fill-palette-color="accent"><g fill="#e77917" data-fill-palette-color="accent"><path d="M69.301 91.925L55.394 81.152V67.864A6.74 6.74 0 0 0 57.647 62.834V30.301A6.765 6.765 0 0 0 44.118 30.301V37.797L27.754 52.759A4.13 4.13 0 0 0 27.493 58.599 4.12 4.12 0 0 0 30.544 59.944C31.54 59.944 32.54 59.587 33.332 58.861L44.118 49V62.834C44.118 63.142 44.146 63.442 44.185 63.739L32.649 73.977A4.15 4.15 0 0 0 31.378 76.08L26.839 94.5A4.133 4.133 0 1 0 34.865 96.479L39.1 79.308 46.373 72.852V83.365C46.373 84.76 47.019 86.076 48.122 86.93L63.776 99.055A4.5 4.5 0 0 0 66.534 100 4.5 4.5 0 0 0 70.102 98.252 4.51 4.51 0 0 0 69.301 91.925" fill="#e77917" data-fill-palette-color="accent"></path><path d="M66.809 23.537A6.765 6.765 0 0 0 60.043 30.301V47.57A6.765 6.765 0 0 0 73.572 47.57V30.301A6.764 6.764 0 0 0 66.809 23.537" fill="#e77917" data-fill-palette-color="accent"></path><circle cx="48.656" cy="9.771" r="9.8" fill="#e77917" data-fill-palette-color="accent"></circle></g></svg></g></svg></g></svg></g></svg></g></svg></g></svg></g><defs></defs></svg><rect width="45.03230144966697" height="95.481" fill="none" stroke="none" visibility="hidden"></rect></g></svg></g></svg>