<svg xmlns="http://www.w3.org/2000/svg" version="1.1" xmlns:xlink="http://www.w3.org/1999/xlink" xmlns:svgjs="http://svgjs.dev/svgjs" width="2000" height="1500" viewBox="0 0 2000 1500"><rect width="2000" height="1500" fill="#000000"></rect><g transform="matrix(0.75,0,0,0.75,249.090909090909,610.3741573817779)"><svg viewBox="0 0 396 73" data-background-color="#fafafa" preserveAspectRatio="xMidYMid meet" height="368" width="2000" xmlns="http://www.w3.org/2000/svg" xmlns:xlink="http://www.w3.org/1999/xlink"><g id="tight-bounds" transform="matrix(1,0,0,1,0.24000000000003752,0.43002359105150845)"><svg viewBox="0 0 395.5199999999999 72.139952817897" height="72.139952817897" width="395.5199999999999"><g><svg viewBox="0 0 503.74930821220227 91.88018640391518" height="72.139952817897" width="395.5199999999999"><g transform="matrix(1,0,0,1,108.22930821220227,11.313274278629692)"><svg viewBox="0 0 395.52 69.25363784665579" height="69.25363784665579" width="395.52"><g id="textblocktransform"><svg viewBox="0 0 395.52 69.25363784665579" height="69.25363784665579" width="395.52" id="textblock"><g><svg viewBox="0 0 395.52 69.25363784665579" height="69.25363784665579" width="395.52"><g transform="matrix(1,0,0,1,0,0)"><svg width="395.52" viewBox="0.4 -32.2 183.89 32.2" height="69.25363784665579" data-palette-color="#111111"><g class="wordmark-text-0" data-fill-palette-color="primary" id="text-0"><path d="M19.35-32.2L29.2 0 22.3 0 21.5-4.2 20.65-7.2 14.35-7.35 8.8-7.2 7.95-4.55 7.1 0 0.4 0 11.3-32.2 19.35-32.2ZM14.85-12.35L19.2-12.45 15.4-25.85 14.95-25.85 10.55-12.45 14.85-12.35ZM48.35-5.15L48.7-4.7 48.3 0 33.45 0 33.75-7.5 33.45-25.25 39.85-25.25 39.5-8.1 39.6-5.15 48.35-5.15ZM79.05-25.25L81.4 0 75.75 0 75.4-7.65 74.55-15.9 74.15-15.9 68.59-2.5 63.75-2.5 58.8-15.9 58.4-15.9 57.5-8.25 56.95 0 51.6 0 54.3-25.25 61.7-25.25 62.7-21.55 66.34-10.85 66.75-10.85 70.7-21.5 71.8-25.25 79.05-25.25ZM100.84-25.25L108.89 0 102.54 0 101.84-3.65 101.39-5.1 96.29-5.15 91.79-5.05 91.44-4 90.69 0 84.54 0 93.39-25.25 100.84-25.25ZM96.69-9.8L100.04-9.85 97.19-19.5 96.79-19.5 93.44-9.85 96.69-9.8ZM136.74-25.4L136.39-8 136.64 0 129.79 0 119.69-15.65 119.34-15.65 119.29-8.85 119.49 0 113.79 0 114.04-7.4 113.79-25.25 120.59-25.25 130.69-9.6 131.14-9.6 130.94-25 136.74-25.4ZM154.54-4.9L161.34-5.1 161.74-4.7 161.29 0 143.99 0 144.24-7.5 143.99-25.25 161.54-25.25 161.89-24.75 161.49-20.1 154.99-20.35 150.29-20.35 150.19-15.25 154.69-15.2 159.04-15.35 159.39-14.9 158.99-10.15 154.24-10.3 150.09-10.3 150.04-8.1 150.14-4.9 154.54-4.9ZM183.94-25.25L184.29-24.75 183.94-19.95 178.84-20.3 177.39-20.3 177.24-8.1 177.44 0 171.19 0 171.44-7.5 171.34-20.3 169.89-20.3 164.69-19.95 164.29-20.45 164.64-25.25 183.94-25.25Z" fill="#ffffff" data-fill-palette-color="primary"></path></g></svg></g></svg></g></svg></g></svg></g><g><svg viewBox="0 0 91.88018640391516 91.88018640391518" height="91.88018640391518" width="91.88018640391516"><g><svg></svg></g><g id="icon-0"><svg viewBox="0 0 91.88018640391516 91.88018640391518" height="91.88018640391518" width="91.88018640391516"><g><path transform="scale(0.9188,0.9188)" d="M30 100c-16.569 0-30-13.431-30-30v-40c0-16.569 13.431-30 30-30h40c16.569 0 30 13.431 30 30v40c0 16.569-13.431 30-30 30z" fill="#ffffff" fill-rule="nonzero" stroke="none" stroke-width="1" stroke-linecap="butt" stroke-linejoin="miter" stroke-miterlimit="10" stroke-dasharray="" stroke-dashoffset="0" font-family="none" font-weight="none" font-size="none" text-anchor="none" style="mix-blend-mode: normal" data-fill-palette-color="accent"></path></g><g transform="matrix(1,0,0,1,32.93988504098513,18.376037280783034)"><svg viewBox="0 0 26.000416321944897 55.12811184234911" height="55.12811184234911" width="26.000416321944897"><g><svg xmlns="http://www.w3.org/2000/svg" xmlns:xlink="http://www.w3.org/1999/xlink" version="1.1" x="0" y="0" viewBox="26.408371279713098 0 47.16362872028691 100.00000641484019" enable-background="new 0 0 100 100" xml:space="preserve" id="dxe-0" width="26.000416321944897" height="55.12811184234911" class="icon-dxe-0" data-fill-palette-color="quaternary"><g fill="#fafafa" data-fill-palette-color="quaternary"><path d="M69.301 91.925L55.394 81.152V67.864A6.74 6.74 0 0 0 57.647 62.834V30.301A6.765 6.765 0 0 0 44.118 30.301V37.797L27.754 52.759A4.13 4.13 0 0 0 27.493 58.599 4.12 4.12 0 0 0 30.544 59.944C31.54 59.944 32.54 59.587 33.332 58.861L44.118 49V62.834C44.118 63.142 44.146 63.442 44.185 63.739L32.649 73.977A4.15 4.15 0 0 0 31.378 76.08L26.839 94.5A4.133 4.133 0 1 0 34.865 96.479L39.1 79.308 46.373 72.852V83.365C46.373 84.76 47.019 86.076 48.122 86.93L63.776 99.055A4.5 4.5 0 0 0 66.534 100 4.5 4.5 0 0 0 70.102 98.252 4.51 4.51 0 0 0 69.301 91.925" fill="#000000" data-fill-palette-color="quaternary"></path><path d="M66.809 23.537A6.765 6.765 0 0 0 60.043 30.301V47.57A6.765 6.765 0 0 0 73.572 47.57V30.301A6.764 6.764 0 0 0 66.809 23.537" fill="#000000" data-fill-palette-color="quaternary"></path><circle cx="48.656" cy="9.771" r="9.8" fill="#000000" data-fill-palette-color="quaternary"></circle></g></svg></g></svg></g></svg></g></svg></g></svg></g><defs></defs></svg><rect width="395.5199999999999" height="72.139952817897" fill="none" stroke="none" visibility="hidden"></rect></g></svg></g></svg>