<?xml version="1.0" encoding="utf-8"?><!-- Uploaded to: SVG Repo, www.svgrepo.com, Generator: SVG Repo Mixer Tools -->
<svg fill="#000000" width="800px" height="800px" viewBox="0 0 24 24" id="discussion" data-name="Flat Color" xmlns="http://www.w3.org/2000/svg" class="icon flat-color"><path id="secondary" d="M8.4,16.8A3,3,0,0,0,9,15a3,3,0,0,0-6,0,3,3,0,0,0,.6,1.8A4,4,0,0,0,2,20v1a1,1,0,0,0,1,1H9a1,1,0,0,0,1-1V20A4,4,0,0,0,8.4,16.8Z" style="fill: rgb(44, 169, 188);"></path><path id="primary" d="M22,7v3a2,2,0,0,1-2,2H16.24l-3.79,1.89A1,1,0,0,1,12,14a1,1,0,0,1-.53-.15A1,1,0,0,1,11,13V11.73A2,2,0,0,1,10,10V7a2,2,0,0,1,2-2h8A2,2,0,0,1,22,7ZM9,7a3,3,0,0,1,3-3h4a2,2,0,0,0-2-2H4A2,2,0,0,0,2,4V7A2,2,0,0,0,4,9H9Z" style="fill: rgb(0, 0, 0);"></path></svg>