<?xml version="1.0" encoding="utf-8"?><!-- Uploaded to: SVG Repo, www.svgrepo.com, Generator: SVG Repo Mixer Tools -->
<svg fill="#000000" width="800px" height="800px" viewBox="0 0 24 24" id="donation" data-name="Flat Color" xmlns="http://www.w3.org/2000/svg" class="icon flat-color"><path id="secondary" d="M12,2A7,7,0,0,0,6.79,13.67a1,1,0,0,0,.75.33h8.92a1,1,0,0,0,.75-.33A7,7,0,0,0,12,2Z" style="fill: rgb(44, 169, 188);"></path><path id="primary" d="M21,12H3a1,1,0,0,0,0,2v6a2,2,0,0,0,2,2H19a2,2,0,0,0,2-2V14a1,1,0,0,0,0-2Z" style="fill: rgb(0, 0, 0);"></path><path id="secondary-2" data-name="secondary" d="M9,18h6a1,1,0,0,0,0-2H9a1,1,0,0,0,0,2Z" style="fill: rgb(44, 169, 188);"></path></svg>