<?xml version="1.0" encoding="utf-8"?><!-- Uploaded to: SVG Repo, www.svgrepo.com, Generator: SVG Repo Mixer Tools -->
<svg fill="#000000" width="800px" height="800px" viewBox="0 0 24 24" id="money-dollar" data-name="Flat Color" xmlns="http://www.w3.org/2000/svg" class="icon flat-color"><rect id="primary" x="2" y="4" width="20" height="16" rx="2" style="fill: rgb(0, 0, 0);"></rect><path id="secondary" d="M2,9H2A5,5,0,0,0,7,4H4A2,2,0,0,0,2,6ZM22,6a2,2,0,0,0-2-2H17a5,5,0,0,0,5,5h0ZM2,18a2,2,0,0,0,2,2H7a5,5,0,0,0-5-5H2Zm20-3h0a5,5,0,0,0-5,5h3a2,2,0,0,0,2-2Zm-7-1.5A2.5,2.5,0,0,1,13,16V16a1,1,0,0,1-2,0H10a1,1,0,0,1,0-2h2.5a.5.5,0,0,0,0-1h-1A2.5,2.5,0,0,1,11,8.05V8a1,1,0,0,1,2,0h1a1,1,0,0,1,0,2H11.5a.5.5,0,0,0,0,1h1A2.5,2.5,0,0,1,15,13.5Z" style="fill: rgb(44, 169, 188);"></path></svg>