<?xml version="1.0" encoding="utf-8"?><!-- Uploaded to: SVG Repo, www.svgrepo.com, Generator: SVG Repo Mixer Tools -->
<svg width="800px" height="800px" viewBox="0 0 32 32" fill="none" xmlns="http://www.w3.org/2000/svg">
<path d="M27 4.5H5C3.34315 4.5 2 5.84315 2 7.5V24.5C2 26.1569 3.34315 27.5 5 27.5H27C28.6569 27.5 30 26.1569 30 24.5V7.5C30 5.84315 28.6569 4.5 27 4.5Z" fill="#1B5E20"/>
<path d="M13.11 15.13C13.5383 14.714 13.8328 14.1797 13.9557 13.5954C14.0787 13.0111 14.0244 12.4034 13.8 11.8501C13.5755 11.2968 13.1911 10.823 12.6958 10.4895C12.2006 10.156 11.6171 9.97778 11.02 9.97778C10.4229 9.97778 9.8394 10.156 9.34416 10.4895C8.84892 10.823 8.46447 11.2968 8.24002 11.8501C8.01557 12.4034 7.96134 13.0111 8.08426 13.5954C8.20717 14.1797 8.50165 14.714 8.93 15.13C6.72 15.75 5.07 18.13 5.07 20.97C5.07 21.2352 5.17536 21.4895 5.36289 21.6771C5.55043 21.8646 5.80478 21.97 6.07 21.97C6.33522 21.97 6.58957 21.8646 6.77711 21.6771C6.96464 21.4895 7.07 21.2352 7.07 20.97C7.07 18.76 8.42 16.97 10.07 16.97H12.07C13.72 16.97 15.07 18.76 15.07 20.97C15.07 21.2352 15.1754 21.4895 15.3629 21.6771C15.5504 21.8646 15.8048 21.97 16.07 21.97C16.3352 21.97 16.5896 21.8646 16.7771 21.6771C16.9646 21.4895 17.07 21.2352 17.07 20.97C17.07 18.12 15.37 15.71 13.11 15.13ZM11 12C11.1978 12 11.3911 12.0586 11.5556 12.1685C11.72 12.2784 11.8482 12.4346 11.9239 12.6173C11.9996 12.8 12.0194 13.0011 11.9808 13.1951C11.9422 13.389 11.847 13.5672 11.7071 13.7071C11.5673 13.8469 11.3891 13.9422 11.1951 13.9808C11.0011 14.0193 10.8 13.9995 10.6173 13.9238C10.4346 13.8482 10.2784 13.72 10.1685 13.5555C10.0586 13.3911 10 13.1977 10 13C10 12.7348 10.1054 12.4804 10.2929 12.2929C10.4804 12.1053 10.7348 12 11 12Z" fill="#F57F17"/>
<path d="M30 15.03V17.03H22.01L22 27.5H20L20.01 17.02L20 4.5H22L22.01 15.03H30Z" fill="#EEEEEE"/>
<path d="M5 4.5C4.20435 4.5 3.44129 4.81607 2.87868 5.37868C2.31607 5.94129 2 6.70435 2 7.5V24.5C2 25.2956 2.31607 26.0587 2.87868 26.6213C3.44129 27.1839 4.20435 27.5 5 27.5H16V4.5H5Z" fill="#388E3C"/>
<path d="M13.11 15.13C13.5383 14.714 13.8328 14.1797 13.9557 13.5954C14.0787 13.0111 14.0244 12.4034 13.8 11.8501C13.5755 11.2968 13.1911 10.823 12.6958 10.4895C12.2006 10.156 11.6171 9.97778 11.02 9.97778C10.4229 9.97778 9.8394 10.156 9.34416 10.4895C8.84892 10.823 8.46447 11.2968 8.24002 11.8501C8.01557 12.4034 7.96134 13.0111 8.08426 13.5954C8.20717 14.1797 8.50165 14.714 8.93 15.13C6.72 15.75 5.07 18.13 5.07 20.97C5.07 21.2352 5.17536 21.4895 5.36289 21.6771C5.55043 21.8646 5.80478 21.97 6.07 21.97C6.33522 21.97 6.58957 21.8646 6.77711 21.6771C6.96464 21.4895 7.07 21.2352 7.07 20.97C7.07 18.76 8.42 16.97 10.07 16.97H12.07C13.72 16.97 15.07 18.76 15.07 20.97C15.0616 21.2286 15.1538 21.4805 15.3273 21.6725C15.5007 21.8646 15.7418 21.982 16 22V17.23C15.3281 16.198 14.2991 15.4502 13.11 15.13ZM11 14C10.8022 14 10.6089 13.9413 10.4444 13.8314C10.28 13.7216 10.1518 13.5654 10.0761 13.3827C10.0004 13.1999 9.98063 12.9989 10.0192 12.8049C10.0578 12.6109 10.153 12.4327 10.2929 12.2929C10.4327 12.153 10.6109 12.0578 10.8049 12.0192C10.9989 11.9806 11.2 12.0004 11.3827 12.0761C11.5654 12.1518 11.7216 12.2799 11.8315 12.4444C11.9414 12.6088 12 12.8022 12 13C12 13.2652 11.8946 13.5195 11.7071 13.7071C11.5196 13.8946 11.2652 14 11 14Z" fill="#F9A825"/>
</svg>